HIERARCHY
ROOT joint_Root
{
	OFFSET 0.0 0.0 0.0
	CHANNELS 6 Xposition Yposition Zposition Zrotation Xrotation Yrotation 
	JOINT Hips
	{
		OFFSET 4.5925 91.4895 -427.239
		CHANNELS 6 Xposition Yposition Zposition Zrotation Xrotation Yrotation 
		JOINT Spine
		{
			OFFSET 15.7357 0.0 0.0
			CHANNELS 6 Xposition Yposition Zposition Zrotation Xrotation Yrotation 
			JOINT Chest
			{
				OFFSET 8.98455 -0.406207 0.0
				CHANNELS 6 Xposition Yposition Zposition Zrotation Xrotation Yrotation 
				JOINT Neck
				{
					OFFSET 16.3773 0.0 0.0
					CHANNELS 6 Xposition Yposition Zposition Zrotation Xrotation Yrotation 
					JOINT Head
					{
						OFFSET 6.45672 0.0 0.0
						CHANNELS 6 Xposition Yposition Zposition Zrotation Xrotation Yrotation 
						End Site
						{
							OFFSET 0.0 0.0 0.0
						}
					}
				}
				JOINT Shoulder_L
				{
					OFFSET 12.9942 -0.242716 4.98039
					CHANNELS 6 Xposition Yposition Zposition Zrotation Xrotation Yrotation 
					JOINT UpperArm_L
					{
						OFFSET 5.34809 0.0 0.0
						CHANNELS 6 Xposition Yposition Zposition Zrotation Xrotation Yrotation 
						JOINT LowerArm_L
						{
							OFFSET 24.3286 1.87007e-05 0.0
							CHANNELS 6 Xposition Yposition Zposition Zrotation Xrotation Yrotation 
							JOINT Hand_L
							{
								OFFSET 22.2916 0.0 0.0
								CHANNELS 6 Xposition Yposition Zposition Zrotation Xrotation Yrotation 
								End Site
								{
									OFFSET 0.0 0.0 0.0
								}
							}
						}
					}
				}
				JOINT Shoulder_R
				{
					OFFSET 12.9945 -0.242716 -4.98039
					CHANNELS 6 Xposition Yposition Zposition Zrotation Xrotation Yrotation 
					JOINT UpperArm_R
					{
						OFFSET -5.34813 0.0 0.0
						CHANNELS 6 Xposition Yposition Zposition Zrotation Xrotation Yrotation 
						JOINT LowerArm_R
						{
							OFFSET -24.3289 0.000322201 0.0
							CHANNELS 6 Xposition Yposition Zposition Zrotation Xrotation Yrotation 
							JOINT Hand_R
							{
								OFFSET -22.2915 -0.000108084 0.0
								CHANNELS 6 Xposition Yposition Zposition Zrotation Xrotation Yrotation 
								End Site
								{
									OFFSET 0.0 0.0 0.0
								}
							}
						}
					}
				}
			}
		}
		JOINT UpperLeg_L
		{
			OFFSET -2.19248 -6.46944 0.0
			CHANNELS 6 Xposition Yposition Zposition Zrotation Xrotation Yrotation 
			JOINT LowerLeg_L
			{
				OFFSET 39.0811 0.0 -1.23785e-05
				CHANNELS 6 Xposition Yposition Zposition Zrotation Xrotation Yrotation 
				JOINT Foot_L
				{
					OFFSET 40.9854 0.0 -1.26872e-05
					CHANNELS 6 Xposition Yposition Zposition Zrotation Xrotation Yrotation 
					JOINT Toes_L
					{
						OFFSET 11.7543 0.0 0.0
						CHANNELS 6 Xposition Yposition Zposition Zrotation Xrotation Yrotation 
						End Site
						{
							OFFSET 0.0 0.0 0.0
						}
					}
				}
			}
		}
		JOINT UpperLeg_R
		{
			OFFSET -2.19251 6.46944 0.0
			CHANNELS 6 Xposition Yposition Zposition Zrotation Xrotation Yrotation 
			JOINT LowerLeg_R
			{
				OFFSET -39.0811 -0.00228153 -0.0401928
				CHANNELS 6 Xposition Yposition Zposition Zrotation Xrotation Yrotation 
				JOINT Foot_R
				{
					OFFSET -40.9854 0.0 0.0
					CHANNELS 6 Xposition Yposition Zposition Zrotation Xrotation Yrotation 
					JOINT Toes_R
					{
						OFFSET -11.7543 0.0 0.0
						CHANNELS 6 Xposition Yposition Zposition Zrotation Xrotation Yrotation 
						End Site
						{
							OFFSET 0.0 0.0 0.0
						}
					}
				}
			}
		}
	}
}
MOTION
Frames:	4
Frame Time:	0.0333333
0.000000 0.000000 0.000000 0.000000 0.000000 -0.000000 -1.223180 90.094200 2.860590 89.919400 -4.880960 12.960200 15.735700 0.000005 -0.000001 77.697000 83.223700 -76.276300 8.984550 -0.406207 -0.000000 5.518560 -2.908910 2.978870 16.377300 -0.000001 -0.000001 28.779900 -8.457320 0.361603 6.456720 -0.000001 -0.000000 17.814700 -9.925870 -1.319840 12.994200 -0.242716 4.980390 -89.183200 -2.150340 -69.194300 5.348090 -0.000007 -0.000001 -57.841000 -40.474600 -80.372900 24.328600 0.000019 0.000005 21.646000 9.426520 -67.574000 22.291600 -0.000001 0.000005 13.626600 5.316060 -0.382605 12.994500 -0.242716 -4.980390 88.198200 9.546490 -79.260100 -5.348130 -0.000001 -0.000004 -64.105200 33.472400 -5.270240 -24.328900 0.000322 -0.000009 1.604810 5.661320 -15.864600 -22.291500 -0.000108 -0.000004 12.424200 5.395520 -2.792480 -2.192480 -6.469440 -0.000000 -173.644000 -13.058400 6.274300 39.081100 -0.000007 -0.000012 -0.222092 0.365942 31.254200 40.985400 -0.000006 -0.000013 0.354583 5.894310 -74.087700 11.754300 -0.000000 0.000003 -0.000170 -0.001615 -16.638800 -2.192510 6.469440 -0.000001 171.715000 18.080500 -172.803000 -39.081100 -0.002282 -0.040193 -0.272780 0.460431 30.947900 -40.985400 0.000008 0.000006 3.378340 14.313100 -74.614600 -11.754300 -0.000006 -0.000006 -0.001130 -0.017238 -17.274100
0.000000 0.000000 0.000000 0.000000 0.000000 -0.000000 -1.247670 90.090100 2.867760 89.918500 -5.120370 12.948200 15.735700 0.000005 -0.000001 77.525600 83.193300 -76.130500 8.984550 -0.406207 -0.000000 5.569390 -2.960310 2.931540 16.377300 -0.000001 -0.000001 28.825200 -8.680190 0.507027 6.456720 -0.000001 -0.000000 17.873100 -10.147200 -0.830549 12.994200 -0.242716 4.980390 -89.174100 -2.173510 -69.188000 5.348090 -0.000007 -0.000001 -57.921000 -40.667900 -80.386200 24.328600 0.000019 0.000005 21.657900 9.452060 -67.532100 22.291600 -0.000001 0.000005 13.637000 5.316280 -0.389063 12.994500 -0.242716 -4.980390 88.184900 9.577470 -79.216300 -5.348130 -0.000001 -0.000004 -63.888800 33.377400 -5.396770 -24.328900 0.000322 -0.000009 1.631520 5.741090 -15.903200 -22.291500 -0.000108 -0.000004 12.528200 5.394940 -2.773640 -2.192480 -6.469440 -0.000000 -173.610000 -13.174100 6.318390 39.081100 -0.000007 -0.000012 -0.222574 0.366944 31.239800 40.985400 -0.000006 -0.000013 0.306489 5.792170 -74.108700 11.754300 -0.000000 0.000003 -0.000170 -0.001613 -16.638700 -2.192510 6.469440 -0.000001 171.784000 17.883000 -172.878000 -39.081100 -0.002282 -0.040193 -0.276531 0.466005 30.984800 -40.985400 0.000008 0.000006 3.404380 14.338600 -74.626400 -11.754300 -0.000006 -0.000006 -0.001240 -0.018760 -17.336000
0.000000 0.000000 0.000000 0.000000 0.000000 -0.000000 -1.266550 90.090500 2.884670 89.881500 -5.362950 12.878000 15.735700 0.000005 -0.000001 77.315300 83.194200 -75.922800 8.984550 -0.406207 -0.000000 5.557540 -3.008690 2.928420 16.377300 -0.000001 -0.000001 28.837300 -8.885510 0.699528 6.456720 -0.000001 -0.000000 17.974100 -10.421700 -0.382656 12.994200 -0.242716 4.980390 -89.155900 -2.220400 -69.178600 5.348090 -0.000007 -0.000001 -58.113300 -40.761900 -80.386000 24.328600 0.000019 0.000005 21.677000 9.462430 -67.529800 22.291600 -0.000001 0.000005 13.632700 5.316240 -0.387829 12.994500 -0.242716 -4.980390 88.171400 9.614940 -79.179000 -5.348130 -0.000001 -0.000004 -63.620100 33.339200 -5.559850 -24.328900 0.000322 -0.000009 1.577320 5.502690 -16.031900 -22.291500 -0.000108 -0.000004 12.568100 5.395790 -2.801070 -2.192480 -6.469440 -0.000000 -173.535000 -13.344000 6.301510 39.081100 -0.000007 -0.000012 -0.223650 0.368827 31.232300 40.985400 -0.000006 -0.000013 0.265316 5.716280 -74.126500 11.754300 -0.000000 0.000003 -0.000167 -0.001594 -16.638000 -2.192510 6.469440 -0.000001 171.914000 17.720300 -172.981000 -39.081100 -0.002282 -0.040193 -0.270432 0.455983 30.977300 -40.985400 0.000008 0.000006 3.435050 14.371900 -74.622100 -11.754300 -0.000006 -0.000006 -0.001229 -0.018615 -17.330100
0.000000 0.000000 0.000000 0.000000 0.000000 -0.000000 -1.277570 90.090200 2.903450 89.848900 -5.617940 12.819400 15.735700 0.000005 -0.000001 77.159300 83.192300 -75.759300 8.984550 -0.406207 -0.000000 5.553810 -3.045790 2.945010 16.377300 -0.000001 -0.000001 28.843900 -9.099270 0.914762 6.456720 -0.000001 -0.000000 18.093800 -10.733700 0.101791 12.994200 -0.242716 4.980390 -89.151300 -2.233760 -69.190200 5.348090 -0.000007 -0.000001 -58.270800 -40.834100 -80.354400 24.328600 0.000019 0.000005 21.626200 9.427290 -67.552000 22.291600 -0.000001 0.000005 13.721200 5.315540 -0.367845 12.994500 -0.242716 -4.980390 88.156200 9.662010 -79.142400 -5.348130 -0.000001 -0.000004 -63.295700 33.283400 -5.784930 -24.328900 0.000322 -0.000009 1.565790 5.389770 -16.235900 -22.291500 -0.000108 -0.000004 12.491200 5.396370 -2.819730 -2.192480 -6.469440 -0.000000 -173.475000 -13.490600 6.317550 39.081100 -0.000007 -0.000012 -0.223197 0.368412 31.209300 40.985400 -0.000006 -0.000013 0.224440 5.626920 -74.153300 11.754300 -0.000000 0.000003 -0.000167 -0.001593 -16.637900 -2.192510 6.469440 -0.000001 172.017000 17.546500 -173.072000 -39.081100 -0.002282 -0.040193 -0.273059 0.460458 30.971900 -40.985400 0.000008 0.000006 3.462500 14.426900 -74.617900 -11.754300 -0.000006 -0.000006 -0.001302 -0.019614 -17.370700
